<?xml version="1.0" encoding="utf-8"?>
<!-- Generator: Adobe Illustrator 19.1.0, SVG Export Plug-In . SVG Version: 6.00 Build 0)  -->
<svg version="1.1" id="Layer_1" xmlns="http://www.w3.org/2000/svg" xmlns:xlink="http://www.w3.org/1999/xlink" x="0px" y="0px"
	 viewBox="-589 348 100 82" style="enable-background:new -589 348 100 82;" xml:space="preserve">
<g>
	<path d="M-494.9,364.5c-0.4-1.5-2.5-2.8-3.9-3.5c-3.1-1.5-6.8-1.5-10.1-1.7c-4.1-0.2-8.3-0.1-12.4,0.4c-5.9,0.9-11.7,1.9-17.7,2.3
		c-6-0.4-11.8-1.5-17.7-2.3c-4.1-0.5-8.3-0.7-12.4-0.4c-3.3,0.2-7,0.3-10.1,1.7c-1.3,0.6-3.4,1.9-3.9,3.5c-0.4,1.5,0.6,3.5,0.9,4.9
		c2,9.6,3.9,20.3,14.9,22.6c12.2,2.6,19.1-3.5,23.8-13.7c1.8-3.8,3.2-5.9,4.5-6.7c1.2,0.8,2.7,2.9,4.5,6.7
		c4.7,10.2,11.6,16.3,23.8,13.7c10.9-2.3,12.9-13,14.9-22.6C-495.5,368-494.5,366-494.9,364.5z"/>
	<path d="M-510.8,405.3c8,1.3,6,7.7-2.5,5.8c-10.4-2.4-14.7-12.3-25.7-5.8c-11-6.5-15.3,3.4-25.7,5.8c-8.5,2-10.4-4.5-2.5-5.8
		c-1.4-4.1-16,5.5-5,13.9c4.1,3.1,11.6,2.9,16.4,2.3c5.7-0.8,11.8-6.4,16.7-6.9c4.9,0.5,11.1,6.1,16.7,6.9
		c4.9,0.7,12.3,0.9,16.4-2.3C-494.8,410.8-509.4,401.3-510.8,405.3z"/>
</g>
</svg>
